<?xml version="1.0" encoding="UTF-8" standalone="no"?>
<!DOCTYPE svg PUBLIC "-//W3C//DTD SVG 1.1//EN" "http://www.w3.org/Graphics/SVG/1.1/DTD/svg11.dtd">
<svg width="100%" height="100%" viewBox="0 0 363 97" version="1.1" xmlns="http://www.w3.org/2000/svg" xmlns:xlink="http://www.w3.org/1999/xlink" xml:space="preserve" xmlns:serif="http://www.serif.com/" style="fill-rule:evenodd;clip-rule:evenodd;stroke-linejoin:round;stroke-miterlimit:2;">
    <g transform="matrix(1,0,0,1,-144.997404,-224.901952)">
        <g id="LogotipoPadrao" transform="matrix(1,0,0,1,1.241047,-3.175896)">
            <g transform="matrix(0.571792,0,0,0.571792,29.230098,91.644564)">
                <path d="M300.435,337.705C298.068,336.962 295.96,336.336 298.608,333.61C300.59,331.569 300.543,331.557 302.343,329.372C302.89,328.707 306.104,324.805 308.3,320.406C312.462,312.07 318.414,298.227 314.567,277.489C312.587,266.814 311.783,266.213 310.625,263.445C310.042,262.051 307.759,256.59 300.413,247.567C298.829,245.62 295.706,243.448 300.632,241.894C309.318,239.152 313.385,238.92 314.52,238.855C338.313,237.494 352.258,251.883 354.653,254.355C360.022,259.895 362.068,264.361 362.222,264.643C370.517,279.835 369.231,291.197 368.964,293.557C368.244,299.907 365.868,314.533 354.883,324.89C351.073,328.483 342.501,337.138 328.539,339.698C313.923,342.378 304.923,339.28 300.435,337.705Z" style="fill:url(#_Linear1);"/>
            </g>
            <g transform="matrix(0.571792,0,0,0.571792,29.230098,91.644564)">
                <path d="M274.715,338.299C279.788,343.212 295.853,354.361 314.498,354.701C336.621,355.103 346.555,348.143 351.765,344.919C362.706,338.149 363.282,334.118 365.229,337.616C365.538,338.171 366.726,342.002 366.845,342.387C368.718,348.428 369.49,358.443 368.06,365.4C364.436,383.028 355.446,390.994 353.6,392.629C348.458,397.185 348.737,397.56 342.813,400.969C339.556,402.843 339.61,402.944 332.462,405.381C322.946,408.625 304.371,409.594 288.677,398.259C286.102,396.4 274.33,389.565 268.463,369.513C266.184,361.723 266.441,350.906 268.909,342.611C270.666,336.701 270.97,336.613 271.481,336.464C272.923,336.044 273.799,337.367 274.715,338.299Z" style="fill:url(#_Linear2);"/>
            </g>
            <g transform="matrix(0.571792,0,0,0.571792,29.230098,91.644564)">
                <path d="M203.692,307.427C202.356,303.023 202.338,303.042 201.895,301.399C195.212,276.591 210.701,252.048 229.646,243.87C241.591,238.714 248.844,238.276 255.481,238.754C259.507,239.044 268.519,241.668 270.543,242.368C271.656,242.752 275.01,243.912 283.136,249.989C283.291,250.105 288.709,255.046 290.09,256.837C296.278,264.858 298.854,270.288 300.675,278.456C304.292,294.688 298.3,308.906 298.081,309.21C297.077,310.607 295.352,309.062 295.178,308.907C288.602,303.017 284.545,301.175 282.346,299.745C273.335,293.884 259.787,291.872 254.505,291.833C245.527,291.767 230,291.852 213.234,304.145C207.014,308.705 205.951,312.353 203.991,308.272C203.861,308.003 203.821,307.696 203.692,307.427Z" style="fill:url(#_Linear3);"/>
            </g>
            <g transform="matrix(0.571792,0,0,0.571792,29.230098,91.644564)">
                <path d="M263.596,307.15C264.202,307.334 270.315,309.198 270.846,310.316C271.967,312.678 268.934,312.39 261.821,323.698C256.634,331.944 253.476,344.49 253.179,349.474C252.553,359.961 252.486,366.583 257.988,381.341C260.082,386.959 265.163,395.535 268.907,399.098C269.584,399.742 273.394,402.427 270.673,403.744C266.228,405.895 254.425,408.203 247.503,407.467C217.995,404.328 207.833,383.142 204.787,377.352C202.306,372.634 199.473,360.664 200.516,351.501C201.41,343.648 202.765,338.577 207.993,329.84C209.338,327.592 216.054,317.986 224.77,312.984C231.227,309.28 231.455,309.845 238.53,307.597C238.646,307.561 243.972,306.397 244.446,306.294C244.994,306.174 247.099,305.427 254.492,305.72C257.766,305.85 262.877,306.989 263.596,307.15Z" style="fill:url(#_Linear4);"/>
            </g>
            <g transform="matrix(0.608092,0,0,0.608092,3.260046,80.702254)">
                <path d="M452.049,342.494L452.013,354.497C451.988,366.461 452.427,370.59 450.617,370.915C449.811,371.06 423.704,371.236 422.388,370.861C419.777,370.117 421.198,363.456 420.973,321.501C420.955,318.137 420.787,286.603 421.198,279.456C421.342,276.945 422.652,277.401 453.5,277.463C458.936,277.474 460.035,276.633 462.228,281.615C474.061,308.501 475.093,308.005 477.128,313.686C477.439,314.555 477.572,315.48 477.862,316.356C483.397,333.108 477.985,278.754 481.544,277.607C483.597,276.946 483.566,277.337 508.502,277.306C512.269,277.302 511.476,279.38 511.446,308.5C511.383,370.034 511.279,370.263 510.589,370.632C508.725,371.629 482.915,371.137 480.508,371.091C476.804,371.021 477.763,369.279 461.922,339.282C453.092,322.561 453.915,320.775 452.544,321.602C451.6,322.171 452.109,322.492 452.049,342.494ZM526.494,371.086C524.531,370.884 522.537,371.333 520.574,371.13C518.057,370.871 519.953,369.351 528.692,340.556C530.196,335.598 547.187,279.614 547.846,278.695C549.086,276.966 549.63,277.544 585.5,277.479C586.143,277.477 592.554,277.466 593.477,278.518C593.696,278.768 621.78,368.986 621.108,370.241C620.457,371.456 586.085,371.578 584.781,370.24C582.562,367.963 584.785,358.713 578.498,358.609C556.284,358.242 555.744,358.054 554.966,359.77C554.24,361.374 552.859,370.031 551.614,370.668C550.558,371.208 550.553,371.121 526.494,371.086ZM567.503,335.343C573.087,335.271 576.395,337.009 575.084,331.596C572.154,319.5 571.481,319.73 569.466,307.518C568.479,301.536 566.397,312.921 566.301,313.451C565.288,318.989 559.413,334.762 562.556,335.262C564.185,335.52 565.874,335.084 567.503,335.343ZM780.507,369.252C774.943,368.13 776.491,366.19 776.62,360.507C777.159,336.647 775.662,281.096 777.483,279.479C778.472,278.601 824.975,278.234 826.318,279.63C830.362,283.835 816.354,282.527 783.499,282.648C779.548,282.662 780.786,284.878 780.625,313.502C780.593,319.287 778.647,322.008 784.497,322.039C809.186,322.168 818.116,320.724 817.243,324.437C816.537,327.441 782.546,323.95 780.832,326.646C780.365,327.38 780.498,363.423 780.852,364.353C782.007,367.39 826.458,363.796 827.52,366.491C828.901,369.996 825.767,369.661 780.507,369.252ZM756.368,292.591C740.288,270.533 718.813,284.329 715.829,291.63C703.743,321.2 756.092,317.034 763.153,340.61C772.916,373.213 718.47,382.393 707.944,353.352C705.709,347.185 710.011,348.503 710.496,349.503C711.147,350.845 711.673,352.246 712.353,353.574C722.353,373.098 752.655,370.753 759.171,354.366C767.873,332.479 737.383,324.799 727.488,320.524C704.917,310.772 705.331,287.604 723.571,279.664C745.966,269.915 763.937,292.337 761.248,296.353C759.461,299.022 756.938,293.632 756.368,292.591ZM640.089,303.499C640.13,284.162 640.002,280.574 640.744,279.683C642.601,277.455 669.988,279.007 672.527,279.151C688.15,280.036 699.986,294.018 698.416,308.492C695.151,338.58 668.257,334.432 646.505,334.67C642.167,334.718 643.898,340.191 643.619,366.505C643.581,370.061 640.679,369.286 640.233,367.587C639.964,366.567 639.959,317.275 640.089,303.499ZM688.318,323.332C705.137,301.887 687.767,284.235 673.453,282.934C669.228,282.551 646.108,282.698 645.557,282.78C643.22,283.128 643.828,284.308 643.676,321.5C643.649,327.981 642.089,330.646 648.499,330.82C680.932,331.7 682.135,328.57 688.318,323.332Z" style="fill:rgb(65,65,65);"/>
            </g>
        </g>
    </g>
    <defs>
        <linearGradient id="_Linear1" x1="0" y1="0" x2="1" y2="0" gradientUnits="userSpaceOnUse" gradientTransform="matrix(71.816452,0,0,101.986123,297.37867,289.757218)"><stop offset="0" style="stop-color:rgb(183,215,92);stop-opacity:1"/><stop offset="1" style="stop-color:rgb(114,179,57);stop-opacity:1"/></linearGradient>
        <linearGradient id="_Linear2" x1="0" y1="0" x2="1" y2="0" gradientUnits="userSpaceOnUse" gradientTransform="matrix(101.903374,0,0,71.214904,266.896118,371.936496)"><stop offset="0" style="stop-color:rgb(183,90,181);stop-opacity:1"/><stop offset="1" style="stop-color:rgb(99,56,132);stop-opacity:1"/></linearGradient>
        <linearGradient id="_Linear3" x1="0" y1="0" x2="1" y2="0" gradientUnits="userSpaceOnUse" gradientTransform="matrix(101.519379,0,0,71.435971,200.313169,274.324626)"><stop offset="0" style="stop-color:rgb(238,207,102);stop-opacity:1"/><stop offset="1" style="stop-color:rgb(212,144,47);stop-opacity:1"/></linearGradient>
        <linearGradient id="_Linear4" x1="0" y1="0" x2="1" y2="0" gradientUnits="userSpaceOnUse" gradientTransform="matrix(71.347035,0,0,101.954582,200.293689,356.629581)"><stop offset="0" style="stop-color:rgb(70,177,216);stop-opacity:1"/><stop offset="1" style="stop-color:rgb(44,95,158);stop-opacity:1"/></linearGradient>
    </defs>
</svg>
