<svg width="156" height="47" viewBox="0 0 156 47" fill="none" xmlns="http://www.w3.org/2000/svg">
<g clip-path="url(#clip0_2424_35)">
<path d="M102.412 2.5902C102.755 6.06474 101.642 9.65009 99.3605 12.4302C99.3242 12.4759 99.3119 12.536 99.3283 12.5918C100.527 16.567 98.9988 21.2308 95.6119 23.9322L94.3432 25.2027C94.3085 25.2373 94.2904 25.2855 94.2929 25.3354C94.4865 28.7753 92.6913 32.1644 89.7188 33.9686L87.8618 35.0951C87.8239 35.1189 87.7951 35.1577 87.7844 35.2026C87.7736 35.2466 87.7811 35.2939 87.8041 35.3328L87.8083 35.3396L87.884 35.4648H87.8807L93.8076 45.7505C93.8645 45.8495 93.895 45.9645 93.895 46.0805C93.895 46.4229 93.6363 46.7055 93.3183 46.7105L90.3664 46.7147C90.0525 46.7147 89.7649 46.5439 89.5985 46.258L88.5835 44.4954C88.581 44.4912 88.5786 44.4861 88.5769 44.481L86.0469 40.0981C86.0114 40.0363 85.9439 40.0067 85.8763 40.0219C83.1914 40.6732 80.452 41.0039 77.7357 41.0039C74.9551 41.0039 72.1573 40.6597 69.4179 39.9796C69.3545 39.9644 69.2804 39.9974 69.2457 40.0574L65.7411 46.2564C65.573 46.5431 65.2863 46.7139 64.9724 46.7139H64.9386L61.9629 46.7097C61.6432 46.7055 61.3844 46.4221 61.3844 46.0795C61.3844 45.9637 61.4149 45.8495 61.471 45.7505L63.0248 43.0601C63.0281 43.0541 63.0314 43.0491 63.0355 43.0449L67.3706 35.4639H67.3591L67.4383 35.3328C67.4621 35.2939 67.4696 35.2457 67.4588 35.2017C67.4481 35.1561 67.4201 35.1172 67.3814 35.0943L65.5244 33.9677C62.5518 32.1628 60.7567 28.7745 60.9511 25.3346C60.9536 25.2847 60.9355 25.2365 60.9008 25.2018L59.6321 23.9314C56.2452 21.2308 54.7169 16.567 55.9157 12.5909C55.9321 12.5352 55.9206 12.4742 55.8835 12.4294C53.6022 9.64925 52.49 6.0639 52.8327 2.58935C52.9258 1.944 53.1919 0.786106 53.9318 0.281163C54.0307 0.220265 54.1221 0.170363 54.2102 0.129765C54.4112 0.0367268 54.623 -0.00810072 54.8405 0.00120311C54.871 0.00289477 54.899 0.0181191 54.9163 0.0443389C56.2246 1.97615 58.7481 4.97028 63.3436 8.2706C65.6735 9.94443 67.4794 11.0719 68.9887 11.998C68.997 12.0023 69.3965 12.2475 69.3965 12.2475C69.8315 12.5139 70.2261 12.7559 70.5977 12.9893C71.2626 13.4393 71.8508 13.8994 72.3756 14.3536C73.6122 15.4632 76.2206 18.2324 76.6087 22.1443C76.6087 22.1443 77.0535 25.2534 75.0853 29.3649L71.5369 36.0331C71.5098 36.0813 71.5056 36.1414 71.5271 36.1931C71.5485 36.2446 71.5922 36.2818 71.644 36.292C73.6683 36.6869 75.718 36.8866 77.7357 36.8866C79.685 36.8866 81.6672 36.6996 83.6264 36.3308C83.6782 36.3207 83.7228 36.2843 83.7441 36.2319C83.7655 36.1803 83.7623 36.1203 83.7342 36.0721L83.5415 35.7109L83.539 35.7066L82.4334 33.6345H82.435L80.1174 29.2854C78.1929 25.2145 78.6312 22.1451 78.6312 22.1451C79.0093 18.3357 81.4926 15.6105 82.7645 14.4449C83.314 13.9611 83.9385 13.4698 84.6471 12.9902C84.9887 12.7748 85.3497 12.5537 85.7437 12.3124L86.2561 11.9989C87.7654 11.0727 89.5714 9.94443 91.9012 8.27144C96.4968 4.97112 99.0202 1.97615 100.329 0.0451847C100.346 0.0189649 100.374 0.00289477 100.404 0.00204894C100.621 -0.00640905 100.834 0.0375726 101.035 0.13061C101.123 0.171209 101.214 0.221112 101.313 0.282009C102.053 0.786952 102.319 1.94485 102.412 2.5902Z" fill="white"/>
<path d="M45.5688 30.0187C48.1202 30.1642 51.2888 30.3452 53.9425 31.284C58.4515 32.88 59.4484 35.968 59.4912 38.2762C59.5316 40.4424 58.7687 42.3412 57.2866 43.769C54.3865 46.561 49.7334 46.7241 48.8304 46.7283C48.6615 46.7385 48.2916 46.7546 47.7626 46.7546C45.7302 46.7546 40.53 46.4907 36.1363 44.0463L35.296 43.5389C35.0299 43.3807 34.8634 43.0872 34.8634 42.7734C34.8634 42.6322 34.8981 42.4935 34.9672 42.3606L36.0284 40.3113C36.1792 40.0228 36.4708 39.8436 36.7896 39.8436C36.9371 39.8436 37.0838 39.8833 37.2139 39.9577L38.2932 40.5675C42.7595 43.0448 48.5002 42.7009 48.6157 42.694L48.617 42.6939C48.6714 42.6896 48.7315 42.6863 48.7958 42.6888C49.81 42.6888 52.7792 42.3717 54.2753 40.9211C54.9583 40.2589 55.2664 39.4409 55.2466 38.3465C55.1881 35.1891 51.8581 34.4228 45.3191 34.0498L45.287 34.0481L45.2387 34.0453C44.582 34.0076 43.9744 33.9725 43.4094 33.9264C36.2969 33.3452 35.2547 29.3091 35.2671 26.9553C35.277 25.0031 36.2211 20.38 44.7531 19.6179C46.5285 19.4589 48.3608 19.5595 50.1989 19.9173C50.399 19.9571 50.5555 19.9892 50.6651 20.0137L51.578 20.2387C51.9652 20.3368 52.2354 20.6904 52.2354 21.0989C52.2354 21.1734 52.2264 21.2443 52.2082 21.3188L51.6827 23.5509C51.5788 23.9374 51.2361 24.2055 50.848 24.2055C50.7862 24.2055 50.7244 24.1979 50.6577 24.1827L49.637 23.9459C49.5321 23.9216 49.404 23.8937 49.3048 23.8722L49.3034 23.8719L49.2275 23.8554C47.8443 23.5949 46.4725 23.5229 45.1502 23.6405C42.5847 23.8698 39.5248 24.6344 39.5125 26.9764C39.5075 27.8772 39.5002 29.5535 43.7727 29.9029C44.3041 29.946 44.9187 29.9816 45.5688 30.0187Z" fill="white"/>
<path fill-rule="evenodd" clip-rule="evenodd" d="M129.309 45.7759L114.911 20.7893C114.587 20.2056 113.874 19.8284 113.094 19.8284C112.344 19.8284 111.647 20.198 111.275 20.7952L98.5357 43.0711C98.5317 43.0753 98.5284 43.0803 98.5251 43.0863L96.9713 45.7767C96.9153 45.8757 96.8856 45.9899 96.8856 46.1057C96.8856 46.4483 97.1443 46.7316 97.464 46.7367L100.439 46.741H100.473C100.787 46.741 101.074 46.5701 101.242 46.2833L104.747 40.0845C104.781 40.0244 104.856 39.9914 104.919 40.0067C107.658 40.6867 110.456 41.031 113.237 41.031C115.953 41.031 118.692 40.7003 121.377 40.049C121.445 40.0338 121.512 40.0634 121.548 40.1251L124.078 44.5081C124.08 44.5131 124.082 44.5181 124.085 44.5224L125.099 46.2851C125.266 46.5709 125.553 46.7418 125.867 46.7418L128.819 46.7376C129.137 46.7324 129.396 46.45 129.396 46.1066C129.397 45.9899 129.367 45.8765 129.309 45.7759ZM119.127 36.3554C117.167 36.7242 115.185 36.9111 113.236 36.9111C111.218 36.9111 109.168 36.7115 107.144 36.3164C107.093 36.3063 107.049 36.269 107.027 36.2175C107.006 36.1659 107.009 36.1059 107.038 36.0577L112.96 25.6779C112.989 25.6281 113.041 25.5968 113.095 25.5959C113.151 25.5959 113.201 25.6264 113.231 25.6771L119.235 36.0957C119.263 36.1439 119.267 36.2039 119.245 36.2556C119.223 36.3088 119.178 36.346 119.127 36.3554Z" fill="white"/>
<path fill-rule="evenodd" clip-rule="evenodd" d="M32.4249 45.7759L18.0262 20.7901C17.7024 20.2066 16.9897 19.8293 16.2095 19.8293C15.459 19.8293 14.762 20.1989 14.3896 20.796L1.65102 43.0719C1.64691 43.0761 1.64361 43.0812 1.64031 43.0872L0.0865056 45.7768C0.0304824 45.8757 0 45.9899 0 46.1058C0 46.4483 0.258693 46.7317 0.578352 46.7368L3.55415 46.741H3.58793C3.90182 46.741 4.18852 46.5701 4.3566 46.2835L7.86131 40.0845C7.89591 40.0245 7.97007 39.9915 8.03351 40.0067C10.772 40.6868 13.5707 41.031 16.3512 41.031C19.0675 41.031 21.8069 40.7003 24.4918 40.049C24.5594 40.0338 24.627 40.0634 24.6624 40.1252L27.1924 44.5081C27.1932 44.5105 27.1942 44.5129 27.1952 44.5152C27.1965 44.5177 27.1978 44.5203 27.1991 44.5225L28.2141 46.2851C28.3804 46.571 28.668 46.7418 28.9819 46.7418L31.9338 46.7376C32.2519 46.7325 32.5105 46.45 32.5105 46.1066C32.5113 45.9899 32.4816 45.8766 32.4249 45.7759ZM22.2411 36.3554C20.2819 36.7242 18.2997 36.9111 16.3504 36.9111C14.3328 36.9111 12.283 36.7115 10.2588 36.3165C10.2068 36.3064 10.1632 36.2691 10.1418 36.2175C10.1204 36.166 10.1237 36.1059 10.1517 36.0577L16.0744 25.678C16.1032 25.6281 16.1552 25.5968 16.2095 25.596C16.2656 25.596 16.3158 25.6264 16.3455 25.6771L22.349 36.0957C22.377 36.1439 22.3811 36.204 22.3588 36.2556C22.3374 36.3089 22.2938 36.3461 22.2411 36.3554Z" fill="white"/>
<path d="M150.451 31.284C147.797 30.3452 144.629 30.1642 142.077 30.0187C141.427 29.9816 140.812 29.946 140.281 29.9029C136.007 29.5535 136.015 27.8772 136.02 26.9764C136.033 24.6344 139.093 23.8698 141.659 23.6405C142.981 23.5229 144.353 23.5949 145.735 23.8554C145.835 23.8773 146.01 23.9146 146.144 23.9459L147.165 24.1827C147.232 24.1979 147.294 24.2055 147.355 24.2055C147.744 24.2055 148.087 23.9374 148.19 23.5509L148.716 21.3188C148.734 21.2443 148.743 21.1734 148.743 21.0989C148.743 20.6904 148.472 20.3368 148.086 20.2387L147.173 20.0137C147.063 19.9892 146.906 19.9571 146.706 19.9173C144.868 19.5595 143.036 19.4589 141.261 19.6179C132.728 20.38 131.784 25.0031 131.774 26.9553C131.762 29.3091 132.805 33.3452 139.916 33.9264C140.485 33.9727 141.093 34.0078 141.752 34.0457L141.794 34.0481L141.827 34.0498C148.366 34.4228 151.696 35.1891 151.754 38.3465C151.774 39.4409 151.465 40.2589 150.783 40.9211C149.286 42.3717 146.317 42.6888 145.303 42.6888C145.24 42.6863 145.179 42.6896 145.125 42.6939L145.123 42.694C145.008 42.7009 139.267 43.0448 134.801 40.5675L133.722 39.9577C133.591 39.8833 133.445 39.8436 133.297 39.8436C132.978 39.8436 132.687 40.0228 132.536 40.3113L131.474 42.3606C131.406 42.4935 131.371 42.6322 131.371 42.7734C131.371 43.0872 131.538 43.3807 131.803 43.5389L132.644 44.0463C137.038 46.4907 142.237 46.7546 144.27 46.7546C144.799 46.7546 145.169 46.7385 145.338 46.7283C146.241 46.7241 150.894 46.561 153.794 43.769C155.276 42.3412 156.039 40.4424 155.998 38.2762C155.957 35.968 154.96 32.88 150.451 31.284Z" fill="white"/>
</g>
<defs>
<clipPath id="clip0_2424_35">
<rect width="156" height="47" fill="white"/>
</clipPath>
</defs>
</svg>
