<?xml version="1.0" encoding="UTF-8" standalone="no"?>
<!DOCTYPE svg PUBLIC "-//W3C//DTD SVG 1.1//EN" "http://www.w3.org/Graphics/SVG/1.1/DTD/svg11.dtd">
<svg width="100%" height="100%" viewBox="0 0 62 62" version="1.1" xmlns="http://www.w3.org/2000/svg" xmlns:xlink="http://www.w3.org/1999/xlink" xml:space="preserve" xmlns:serif="http://www.serif.com/" style="fill-rule:evenodd;clip-rule:evenodd;stroke-linejoin:round;stroke-miterlimit:2;">
    <g transform="matrix(1,0,0,1,-609.449212,-327.210447)">
        <g transform="matrix(1,0,0,1,-395.3234,-123.702608)">
            <g transform="matrix(0.361759,0,0,0.361759,932.31461,364.595007)">
                <path d="M300.435,337.705C298.068,336.962 295.96,336.336 298.608,333.61C300.59,331.569 300.543,331.557 302.343,329.372C302.89,328.707 306.104,324.805 308.3,320.406C312.462,312.07 318.414,298.227 314.567,277.489C312.587,266.814 311.783,266.213 310.625,263.445C310.042,262.051 307.759,256.59 300.413,247.567C298.829,245.62 295.706,243.448 300.632,241.894C309.318,239.152 313.385,238.92 314.52,238.855C338.313,237.494 352.258,251.883 354.653,254.355C360.022,259.895 362.068,264.361 362.222,264.643C370.517,279.835 369.231,291.197 368.964,293.557C368.244,299.907 365.868,314.533 354.883,324.89C351.073,328.483 342.501,337.138 328.539,339.698C313.923,342.378 304.923,339.28 300.435,337.705Z" style="fill:url(#_Linear1);"/>
            </g>
            <g transform="matrix(0.361759,0,0,0.361759,932.31461,364.595007)">
                <path d="M274.715,338.299C279.788,343.212 295.853,354.361 314.498,354.701C336.621,355.103 346.555,348.143 351.765,344.919C362.706,338.149 363.282,334.118 365.229,337.616C365.538,338.171 366.726,342.002 366.845,342.387C368.718,348.428 369.49,358.443 368.06,365.4C364.436,383.028 355.446,390.994 353.6,392.629C348.458,397.185 348.737,397.56 342.813,400.969C339.556,402.843 339.61,402.944 332.462,405.381C322.946,408.625 304.371,409.594 288.677,398.259C286.102,396.4 274.33,389.565 268.463,369.513C266.184,361.723 266.441,350.906 268.909,342.611C270.666,336.701 270.97,336.613 271.481,336.464C272.923,336.044 273.799,337.367 274.715,338.299Z" style="fill:url(#_Linear2);"/>
            </g>
            <g transform="matrix(0.361759,0,0,0.361759,932.31461,364.595007)">
                <path d="M203.692,307.427C202.356,303.023 202.338,303.042 201.895,301.399C195.212,276.591 210.701,252.048 229.646,243.87C241.591,238.714 248.844,238.276 255.481,238.754C259.507,239.044 268.519,241.668 270.543,242.368C271.656,242.752 275.01,243.912 283.136,249.989C283.291,250.105 288.709,255.046 290.09,256.837C296.278,264.858 298.854,270.288 300.675,278.456C304.292,294.688 298.3,308.906 298.081,309.21C297.077,310.607 295.352,309.062 295.178,308.907C288.602,303.017 284.545,301.175 282.346,299.745C273.335,293.884 259.787,291.872 254.505,291.833C245.527,291.767 230,291.852 213.234,304.145C207.014,308.705 205.951,312.353 203.991,308.272C203.861,308.003 203.821,307.696 203.692,307.427Z" style="fill:url(#_Linear3);"/>
            </g>
            <g transform="matrix(0.361759,0,0,0.361759,932.31461,364.595007)">
                <path d="M263.596,307.15C264.202,307.334 270.315,309.198 270.846,310.316C271.967,312.678 268.934,312.39 261.821,323.698C256.634,331.944 253.476,344.49 253.179,349.474C252.553,359.961 252.486,366.583 257.988,381.341C260.082,386.959 265.163,395.535 268.907,399.098C269.584,399.742 273.394,402.427 270.673,403.744C266.228,405.895 254.425,408.203 247.503,407.467C217.995,404.328 207.833,383.142 204.787,377.352C202.306,372.634 199.473,360.664 200.516,351.501C201.41,343.648 202.765,338.577 207.993,329.84C209.338,327.592 216.054,317.986 224.77,312.984C231.227,309.28 231.455,309.845 238.53,307.597C238.646,307.561 243.972,306.397 244.446,306.294C244.994,306.174 247.099,305.427 254.492,305.72C257.766,305.85 262.877,306.989 263.596,307.15Z" style="fill:url(#_Linear4);"/>
            </g>
        </g>
    </g>
    <defs>
        <linearGradient id="_Linear1" x1="0" y1="0" x2="1" y2="0" gradientUnits="userSpaceOnUse" gradientTransform="matrix(71.816452,0,0,101.986123,297.37867,289.757218)"><stop offset="0" style="stop-color:rgb(183,215,92);stop-opacity:1"/><stop offset="1" style="stop-color:rgb(114,179,57);stop-opacity:1"/></linearGradient>
        <linearGradient id="_Linear2" x1="0" y1="0" x2="1" y2="0" gradientUnits="userSpaceOnUse" gradientTransform="matrix(101.903374,0,0,71.214904,266.896118,371.936496)"><stop offset="0" style="stop-color:rgb(183,90,181);stop-opacity:1"/><stop offset="1" style="stop-color:rgb(99,56,132);stop-opacity:1"/></linearGradient>
        <linearGradient id="_Linear3" x1="0" y1="0" x2="1" y2="0" gradientUnits="userSpaceOnUse" gradientTransform="matrix(101.519379,0,0,71.435971,200.313169,274.324626)"><stop offset="0" style="stop-color:rgb(238,207,102);stop-opacity:1"/><stop offset="1" style="stop-color:rgb(212,144,47);stop-opacity:1"/></linearGradient>
        <linearGradient id="_Linear4" x1="0" y1="0" x2="1" y2="0" gradientUnits="userSpaceOnUse" gradientTransform="matrix(71.347035,0,0,101.954582,200.293689,356.629581)"><stop offset="0" style="stop-color:rgb(70,177,216);stop-opacity:1"/><stop offset="1" style="stop-color:rgb(44,95,158);stop-opacity:1"/></linearGradient>
    </defs>
</svg>
